# xmcd CD database file
#
# Track frame offsets:
#	150
#	21699
#	44928
#	65527
#	89872
#	113644
#	131419
#	152448
#	175942
#	187749
#	218473
#	243363
#	281544
#	302588
#
# Disc length: 4640 seconds
#
# Revision: 1
# Processed by: cddbd v1.5.2PL0 Copyright (c) Steve Scherf et al.
# Submitted via: CDex 1.51
#
DISCID=c3121e0e
DTITLE=Tom Woll, Midnight Mover - Live in Concert: Cotton Club, Kaiserslautern
DYEAR=2002
DGENRE=Blues
TTITLE0=Gotta get closer
TTITLE1=Bad Mama Jama
TTITLE2=Superstition
TTITLE3=Lady Marmalade
TTITLE4=Leave your hat on
TTITLE5=Have I told you lately
TTITLE6=Soul man
TTITLE7=You got me running
TTITLE8=Respect
TTITLE9=Use me
TTITLE10=If u don't know me
TTITLE11=Kiss
TTITLE12=Sexmachine
TTITLE13=Don't look any further (Jam-version)
EXTD=Recorded Live 6. and 27. May 2002 YEAR: 2002
EXTT0=
EXTT1=
EXTT2=
EXTT3=
EXTT4=
EXTT5=
EXTT6=
EXTT7=
EXTT8=
EXTT9=
EXTT10=
EXTT11=
EXTT12=
EXTT13=
PLAYORDER=
